<?xml version="1.0" standalone="no"?><!DOCTYPE svg PUBLIC "-//W3C//DTD SVG 1.1//EN" "http://www.w3.org/Graphics/SVG/1.1/DTD/svg11.dtd"><svg t="1620643641467" class="icon" viewBox="0 0 1071 1024" version="1.1" xmlns="http://www.w3.org/2000/svg" p-id="1742" xmlns:xlink="http://www.w3.org/1999/xlink" width="209.1796875" height="200"><defs><style type="text/css"></style></defs><path d="M1064.862041 380.132571c-11.795592-33.449796-41.499429-57.525551-77.530123-62.827102l-254.142694-37.240163-110.367346-225.718857C606.862367 21.667265 572.39249 0.544653 534.990367 0.544653c-37.312 0-71.734857 21.122612-87.740081 53.801796l-110.413062 225.739755-254.123102 37.285878c-36.050286 5.187918-65.780245 29.238857-77.570612 62.876734-11.770776 33.959184-3.000163 70.848 22.861061 96.270368L214.530612 660.045061 171.265306 914.35102c-6.066939 35.449469 9.70449 71.806694 40.291265 92.668082 29.912816 20.123429 70.009469 22.332082 102.228898 5.398204l221.250613-117.443918 221.392979 117.464816c14.325551 7.561143 30.402612 11.56049 46.520163 11.56049 19.862204 0 39.101388-5.861878 55.729633-17.050123 30.448327-20.771265 46.198857-57.102367 40.126694-92.551836l-43.244408-254.325551 186.550857-183.525878c25.816816-25.469388 34.587429-62.362122 22.750041-96.412735z m-55.433143 63.218939L805.577143 643.92751l47.310367 278.286368c3.072 17.862531-4.790857 35.586612-20.352 46.218449-15.933388 10.699755-37.42302 11.837388-54.38302 2.908734l-243.137306-129.025306-242.979266 128.974367c-17.142857 9.025306-38.658612 7.815837-54.38302-2.791183-15.724408-10.719347-23.585959-28.469551-20.515265-46.330776l47.336489-278.240653L60.643265 443.35151c-12.934531-12.699429-17.351837-31.051755-11.561796-47.775347 6.025143-17.123265 21.443918-29.449143 40.357878-32.16849l278.448326-40.867265 121.183347-247.770122c8.235102-16.842449 26.285714-27.730286 45.965062-27.730286 19.749878 0 37.80049 10.866939 46.030367 27.704163l121.163755 247.770123 278.381714 40.775836c18.887837 2.791184 34.378449 15.162776 40.37747 32.193307 5.791347 16.816327 1.372735 35.143837-11.56049 47.868081zM531.918367 372.708571c-47.638204 0-86.014694 14.541061-114.020571 43.173878-46.755265 47.800163-45.754776 117.229714-45.682939 120.182857 0.27951 12.658939 10.626612 22.704327 23.234612 22.704327h0.442776c12.81698-0.235102 23.006041-10.836898 22.816653-23.652572 0-0.53551-0.417959-53.362939 32.658286-86.928979 18.913959-19.209143 46.035592-28.933224 80.530285-28.933225 12.836571 0 23.260735-10.418939 23.260735-23.260735s-10.398041-23.285551-23.239837-23.285551z" p-id="1743" fill="#2c2c2c"></path></svg>