<?xml version="1.0" standalone="no"?><!DOCTYPE svg PUBLIC "-//W3C//DTD SVG 1.1//EN" "http://www.w3.org/Graphics/SVG/1.1/DTD/svg11.dtd"><svg t="1620729904018" class="icon" viewBox="0 0 1024 1024" version="1.1" xmlns="http://www.w3.org/2000/svg" p-id="4660" xmlns:xlink="http://www.w3.org/1999/xlink" width="200" height="200"><defs><style type="text/css"></style></defs><path d="M845.21 40.714a41.288 41.288 0 0 0-36.885 26.317 20.48 20.48 0 0 0-0.04 0.123l-17.163 45.855-17.531-6.697a59.72 59.72 0 0 0-76.718 34.529c-30.618 81.326-85.75 224.154-95.846 254.566-2.56 7.742-7.25 10.22-13.947 12.309-6.697 2.089-12.596 1.884-12.596 1.884a20.48 20.48 0 1 0-2.088 40.919s12.615 0.758 26.93-3.727c14.316-4.465 33.158-16.098 40.592-38.441a20.48 20.48 0 0 0 0-0.041c7.844-23.634 64.553-171.356 95.314-253.03a18.104 18.104 0 0 1 23.839-10.67l17.735 6.717L544.604 771.89a20.48 20.48 0 0 0-0.84 3.052 20.48 20.48 0 0 0-0.634 6.267l5.714 137.38-14.848 36.188a20.48 20.48 0 1 0 37.928 15.523l12.903-31.539 106.619-100.229a20.48 20.48 0 0 0 6.267-12.288l262.41-701.317a41.247 41.247 0 0 0-23.675-52.818l-0.041-0.02-75.203-28.775a20.48 20.48 0 0 0-0.04 0 40.264 40.264 0 0 0-15.975-2.6z m1.392 40.878l75.244 28.775a20.48 20.48 0 0 0 0 0.04 20.48 20.48 0 0 0-0.041 0.083l-17.08 45.67-75.326-28.631 17.203-45.937z m-31.539 84.296l75.305 28.631-77.128 206.09-75.038-29.327 76.882-205.414zM266.24 368.64c-31.437 0-59.351 13.722-82.125 33.587-22.774 19.907-41.287 46.019-56.79 74.056-31.049 56.074-49.972 120.054-58.41 160.194a20.48 20.48 0 0 0-0.082 0.492c-3.748 20.214-10.895 70.513-6.349 119.07 2.253 24.27 7.21 48.21 19.313 68.322 12.083 20.111 34.345 35.799 61.563 35.799 46.756 0 78.48-21.094 100.086-38.707 10.793-8.807 19.558-16.67 26.317-21.013 2.949-1.904 4.218-1.29 6.205-2.048 1.147 8.13 1.884 19.866 3.154 32.645 1.352 13.64 3.072 27.935 8.95 41.575 2.949 6.8 7.106 13.721 13.844 19.312 6.759 5.592 16.261 9.135 25.641 9.196 12.063 0.061 20.746-5.366 27.525-10.486 6.78-5.12 12.33-10.813 17.47-15.913 5.16-5.12 9.892-9.625 13.312-12.206 3.46-2.56 4.976-2.355 3.256-2.355 0.328 0 0.287-0.102 0.512-0.123 0.86 2.09 2.642 9.77 5.489 20.808 5.939 23.06 21.75 57.446 68.32 81.203a20.48 20.48 0 1 0 18.597-36.536c-37.069-18.903-42.558-36.557-47.268-54.887-2.376-9.154-3.113-18.596-8.766-29.86-5.652-11.264-21.524-21.565-36.884-21.565-11.96 0-20.767 5.304-27.689 10.445-6.902 5.12-12.575 10.895-17.756 16.036a155.976 155.976 0 0 1-13.271 12.247c-1.434 1.065-2.212 1.433-2.765 1.72-0.307-0.328-0.963-0.942-1.966-3.256-2.458-5.673-4.547-17.101-5.734-29.39-1.23-12.287-1.782-25.312-3.687-37.211-0.962-5.94-2.068-11.592-5.12-17.92-3.072-6.308-10.629-15.196-21.709-16.671-16.076-2.15-30.679 3.625-41.82 10.793-11.14 7.168-20.336 15.77-30.044 23.695-19.415 15.831-39.035 29.512-74.199 29.512-13.722 0-19.62-4.567-26.48-15.974-6.861-11.387-11.674-30.208-13.64-51.016-3.892-41.636 2.724-90.726 5.877-107.684v-0.082c7.721-36.516 26.153-97.935 54.047-148.316 13.988-25.293 30.372-47.718 47.923-63.058 17.531-15.278 35.39-23.47 55.153-23.47 23.9 0 35.901 9.564 46.08 27.873 10.179 18.31 15.36 46.08 15.36 74.527a20.48 20.48 0 1 0 40.96 0c0-32.993-5.059-66.662-20.48-94.433s-44.38-48.927-81.92-48.927z m457.605 41.001l75.039 29.327-133.57 356.967L590.09 767.2l133.735-357.56zM585.277 809.206l55.194 21.033-52.265 49.152-2.929-70.185z" p-id="4661" fill="#707070"></path></svg>