<?xml version="1.0" standalone="no"?><!DOCTYPE svg PUBLIC "-//W3C//DTD SVG 1.1//EN" "http://www.w3.org/Graphics/SVG/1.1/DTD/svg11.dtd"><svg t="1620643673829" class="icon" viewBox="0 0 1024 1024" version="1.1" xmlns="http://www.w3.org/2000/svg" p-id="2614" xmlns:xlink="http://www.w3.org/1999/xlink" width="200" height="200"><defs><style type="text/css"></style></defs><path d="M512 596.146293c-164.342056 0-298.073147-133.685942-298.073147-298.027998S347.657944 0 512 0s298.073147 133.77624 298.073147 298.118295-133.708516 298.027998-298.073147 298.027998z m0-547.385463c-137.455876 0-249.289742 111.856441-249.289742 249.357465 0 137.455876 111.833866 249.267168 249.289742 249.267168 137.478451 0 249.312317-111.811292 249.312317-249.267168 0.022574-137.501025-111.833866-249.357466-249.312317-249.357465zM939.71826 1023.864553a24.380415 24.380415 0 0 1-24.380415-24.380415c0-112.262781-44.990895-216.534203-126.687859-293.513106a24.335266 24.335266 0 0 1-1.015851-34.426048 24.335266 24.335266 0 0 1 34.471198-1.061c91.562003 86.324728 141.993342 203.170124 141.993342 329.000154a24.380415 24.380415 0 0 1-24.380415 24.380415z" p-id="2615" fill="#66ccff"></path><path d="M84.28174 1023.864553a24.380415 24.380415 0 0 1-24.380415-24.380415c0-249.289742 202.786358-452.098675 452.076101-452.098675a24.380415 24.380415 0 0 1 0 48.76083c-222.403563 0-403.337845 180.956857-403.337846 403.337845a24.335266 24.335266 0 0 1-24.35784 24.380415z" p-id="2616" fill="#66ccff"></path></svg>