<?xml version="1.0" standalone="no"?><!DOCTYPE svg PUBLIC "-//W3C//DTD SVG 1.1//EN" "http://www.w3.org/Graphics/SVG/1.1/DTD/svg11.dtd"><svg t="1620643604704" class="icon" viewBox="0 0 1024 1024" version="1.1" xmlns="http://www.w3.org/2000/svg" p-id="20850" xmlns:xlink="http://www.w3.org/1999/xlink" width="200" height="200"><defs><style type="text/css"></style></defs><path d="M443.025 681.815l439.664 138.757-59.294 59.294-380.37-198.051zM472.067 992h83.899l-212.975-409.009 129.076 409.009zM144.538 821.378l59.294 59.294 138.757-439.664-198.051 380.37zM32 469.243v83.899l409.009-212.975-409.009 129.076zM203.832 141.311l-59.294 59.294 439.664 138.757-380.37-198.051zM555.966 32h-83.899l212.975 409.009-129.076-409.009zM883.496 201.009l-59.294-59.294-138.757 439.664 198.051-380.37zM992 553.143v-83.899l-409.009 212.975 409.009-129.076z" p-id="20851" data-spm-anchor-id="a313x.7781069.0.i21" class="selected" fill="#66ccff"></path></svg>